<?xml version="1.0" encoding="UTF-8" standalone="no"?>
<!DOCTYPE svg PUBLIC "-//W3C//DTD SVG 1.1//EN"
 "http://www.w3.org/Graphics/SVG/1.1/DTD/svg11.dtd">
<!-- Generated by graphviz version 14.1.2 (20260124.0452)
 -->
<!-- Title: DevKG_Ontology Pages: 1 -->
<svg width="1489pt" height="873pt"
 viewBox="0.00 0.00 1489.00 873.00" xmlns="http://www.w3.org/2000/svg" xmlns:xlink="http://www.w3.org/1999/xlink">
<g id="graph0" class="graph" transform="scale(1 1) rotate(0) translate(36 836.62)">
<title>DevKG_Ontology</title>
<polygon fill="white" stroke="none" points="-36,36 -36,-836.62 1452.62,-836.62 1452.62,36 -36,36"/>
<text xml:space="preserve" text-anchor="start" x="544.81" y="-782.42" font-family="Helvetica,sans-Serif" font-weight="bold" font-size="16.00">Dev Knowledge Graph Ontology (devkg.ttl)</text>
<g id="clust5" class="cluster">
<title>cluster_predicates</title>
<path fill="#f5fbf5" stroke="#449d44" stroke-width="2.5" d="M820.62,-8C820.62,-8 1396.62,-8 1396.62,-8 1402.62,-8 1408.62,-14 1408.62,-20 1408.62,-20 1408.62,-315 1408.62,-315 1408.62,-321 1402.62,-327 1396.62,-327 1396.62,-327 820.62,-327 820.62,-327 814.62,-327 808.62,-321 808.62,-315 808.62,-315 808.62,-20 808.62,-20 808.62,-14 814.62,-8 820.62,-8"/>
<text xml:space="preserve" text-anchor="start" x="1023.88" y="-312.6" font-family="Helvetica,sans-Serif" font-weight="bold" font-size="12.00">Curated Predicate Vocabulary</text>
<text xml:space="preserve" text-anchor="start" x="1053.5" y="-303.45" font-family="Helvetica,sans-Serif" font-size="9.00" fill="#555555">Entity —[predicate]→ Entity</text>
</g>
<!-- Developer -->
<g id="node1" class="node">
<title>Developer</title>
<path fill="#4a90d9" stroke="#2e6db4" stroke-width="1.5" d="M61.25,-709.75C61.25,-709.75 12,-709.75 12,-709.75 6,-709.75 0,-703.75 0,-697.75 0,-697.75 0,-684.75 0,-684.75 0,-678.75 6,-672.75 12,-672.75 12,-672.75 61.25,-672.75 61.25,-672.75 67.25,-672.75 73.25,-678.75 73.25,-684.75 73.25,-684.75 73.25,-697.75 73.25,-697.75 73.25,-703.75 67.25,-709.75 61.25,-709.75"/>
<text xml:space="preserve" text-anchor="start" x="10" y="-694.3" font-family="Helvetica,sans-Serif" font-weight="bold" font-size="11.00" fill="white">Developer</text>
<text xml:space="preserve" text-anchor="start" x="17.12" y="-680.15" font-family="Helvetica,sans-Serif" font-size="8.00" fill="#e0e8f0">prov:Agent</text>
</g>
<!-- Session -->
<g id="node3" class="node">
<title>Session</title>
<path fill="#4a90d9" stroke="#2e6db4" stroke-width="1.5" d="M445.75,-709.75C445.75,-709.75 363.5,-709.75 363.5,-709.75 357.5,-709.75 351.5,-703.75 351.5,-697.75 351.5,-697.75 351.5,-684.75 351.5,-684.75 351.5,-678.75 357.5,-672.75 363.5,-672.75 363.5,-672.75 445.75,-672.75 445.75,-672.75 451.75,-672.75 457.75,-678.75 457.75,-684.75 457.75,-684.75 457.75,-697.75 457.75,-697.75 457.75,-703.75 451.75,-709.75 445.75,-709.75"/>
<text xml:space="preserve" text-anchor="start" x="383.62" y="-694.3" font-family="Helvetica,sans-Serif" font-weight="bold" font-size="11.00" fill="white">Session</text>
<text xml:space="preserve" text-anchor="start" x="361.5" y="-680.15" font-family="Helvetica,sans-Serif" font-size="8.00" fill="#e0e8f0">prov:Activity, sioc:Forum</text>
</g>
<!-- Developer&#45;&gt;Session -->
<g id="edge1" class="edge">
<title>Developer&#45;&gt;Session</title>
<path fill="none" stroke="black" stroke-width="1.2" d="M66.83,-710.41C91.54,-724.89 127.96,-743.56 162.75,-751.44 205.99,-761.23 219.05,-760.26 262.5,-751.44 296.58,-744.52 332.63,-729.15 359.89,-715.67"/>
<polygon fill="black" stroke="black" stroke-width="1.2" points="361.3,-718.89 368.64,-711.25 358.14,-712.64 361.3,-718.89"/>
<text xml:space="preserve" text-anchor="middle" x="212.62" y="-753.95" font-family="Helvetica,sans-Serif" font-size="9.00">prov:wasAssociatedWith</text>
</g>
<!-- AIModel -->
<g id="node2" class="node">
<title>AIModel</title>
<path fill="#4a90d9" stroke="#2e6db4" stroke-width="1.5" d="M182,-709.75C182,-709.75 143.25,-709.75 143.25,-709.75 137.25,-709.75 131.25,-703.75 131.25,-697.75 131.25,-697.75 131.25,-684.75 131.25,-684.75 131.25,-678.75 137.25,-672.75 143.25,-672.75 143.25,-672.75 182,-672.75 182,-672.75 188,-672.75 194,-678.75 194,-684.75 194,-684.75 194,-697.75 194,-697.75 194,-703.75 188,-709.75 182,-709.75"/>
<text xml:space="preserve" text-anchor="start" x="141.25" y="-694.3" font-family="Helvetica,sans-Serif" font-weight="bold" font-size="11.00" fill="white">AIModel</text>
<text xml:space="preserve" text-anchor="start" x="143.12" y="-680.15" font-family="Helvetica,sans-Serif" font-size="8.00" fill="#e0e8f0">prov:Agent</text>
</g>
<!-- AIModel&#45;&gt;Session -->
<g id="edge2" class="edge">
<title>AIModel&#45;&gt;Session</title>
<path fill="none" stroke="black" stroke-width="1.2" d="M194.51,-691.25C231.19,-691.25 292.38,-691.25 339.3,-691.25"/>
<polygon fill="black" stroke="black" stroke-width="1.2" points="339.08,-694.75 349.08,-691.25 339.08,-687.75 339.08,-694.75"/>
<text xml:space="preserve" text-anchor="middle" x="272.75" y="-695.45" font-family="Helvetica,sans-Serif" font-size="9.00">prov:wasAssociatedWith</text>
</g>
<!-- Message -->
<g id="node4" class="node">
<title>Message</title>
<path fill="#4a90d9" stroke="#2e6db4" stroke-width="1.5" d="M646.38,-567.25C646.38,-567.25 576.88,-567.25 576.88,-567.25 570.88,-567.25 564.88,-561.25 564.88,-555.25 564.88,-555.25 564.88,-542.25 564.88,-542.25 564.88,-536.25 570.88,-530.25 576.88,-530.25 576.88,-530.25 646.38,-530.25 646.38,-530.25 652.38,-530.25 658.38,-536.25 658.38,-542.25 658.38,-542.25 658.38,-555.25 658.38,-555.25 658.38,-561.25 652.38,-567.25 646.38,-567.25"/>
<text xml:space="preserve" text-anchor="start" x="588.75" y="-551.8" font-family="Helvetica,sans-Serif" font-weight="bold" font-size="11.00" fill="white">Message</text>
<text xml:space="preserve" text-anchor="start" x="574.88" y="-537.65" font-family="Helvetica,sans-Serif" font-size="8.00" fill="#e0e8f0">sioc:Post, prov:Entity</text>
</g>
<!-- Session&#45;&gt;Message -->
<g id="edge3" class="edge">
<title>Session&#45;&gt;Message</title>
<path fill="none" stroke="black" stroke-width="1.2" d="M440.89,-665.64C481.99,-637.74 548.02,-592.92 584.76,-567.98"/>
<polygon fill="black" stroke="black" stroke-width="1.2" points="439.07,-662.64 432.77,-671.15 443.01,-668.43 439.07,-662.64"/>
<text xml:space="preserve" text-anchor="middle" x="549.77" y="-621.2" font-family="Helvetica,sans-Serif" font-size="9.00">has_container</text>
<text xml:space="preserve" text-anchor="middle" x="549.77" y="-611.45" font-family="Helvetica,sans-Serif" font-size="9.00">(sioc)</text>
</g>
<!-- CodeArtifact -->
<g id="node9" class="node">
<title>CodeArtifact</title>
<path fill="#4a90d9" stroke="#2e6db4" stroke-width="1.5" d="M369.25,-157C369.25,-157 224,-157 224,-157 218,-157 212,-151 212,-145 212,-145 212,-132 212,-132 212,-126 218,-120 224,-120 224,-120 369.25,-120 369.25,-120 375.25,-120 381.25,-126 381.25,-132 381.25,-132 381.25,-145 381.25,-145 381.25,-151 375.25,-157 369.25,-157"/>
<text xml:space="preserve" text-anchor="start" x="263.25" y="-141.55" font-family="Helvetica,sans-Serif" font-weight="bold" font-size="11.00" fill="white">CodeArtifact</text>
<text xml:space="preserve" text-anchor="start" x="222" y="-127.4" font-family="Helvetica,sans-Serif" font-size="8.00" fill="#e0e8f0">prov:Entity, schema:SoftwareSourceCode</text>
</g>
<!-- Session&#45;&gt;CodeArtifact -->
<g id="edge12" class="edge">
<title>Session&#45;&gt;CodeArtifact</title>
<path fill="none" stroke="black" stroke-width="1.2" d="M401.09,-672.24C385.42,-592.33 322.09,-269.35 302.46,-169.24"/>
<polygon fill="black" stroke="black" stroke-width="1.2" points="305.89,-168.57 300.53,-159.43 299.02,-169.92 305.89,-168.57"/>
<text xml:space="preserve" text-anchor="middle" x="398.33" y="-478.7" font-family="Helvetica,sans-Serif" font-size="9.00">producedArtifact</text>
<text xml:space="preserve" text-anchor="middle" x="398.33" y="-468.95" font-family="Helvetica,sans-Serif" font-size="9.00">(prov:generated)</text>
</g>
<!-- Message&#45;&gt;Message -->
<g id="edge6" class="edge">
<title>Message&#45;&gt;Message</title>
<path fill="none" stroke="black" stroke-width="1.2" d="M659.03,-561.17C688.41,-564.16 716.38,-560.02 716.38,-548.75 716.38,-538.98 695.35,-534.56 670.6,-535.52"/>
<polygon fill="black" stroke="black" stroke-width="1.2" points="670.57,-532.01 660.84,-536.21 671.06,-538.99 670.57,-532.01"/>
<text xml:space="preserve" text-anchor="middle" x="756.12" y="-549.95" font-family="Helvetica,sans-Serif" font-size="9.00">hasParentMessage</text>
<text xml:space="preserve" text-anchor="middle" x="756.12" y="-540.2" font-family="Helvetica,sans-Serif" font-size="9.00">(sioc:reply_of)</text>
</g>
<!-- UserMessage -->
<g id="node5" class="node">
<title>UserMessage</title>
<path fill="#4a90d9" stroke="#2e6db4" stroke-width="1.5" d="M1069.88,-424.75C1069.88,-424.75 1003.38,-424.75 1003.38,-424.75 997.38,-424.75 991.38,-418.75 991.38,-412.75 991.38,-412.75 991.38,-399.75 991.38,-399.75 991.38,-393.75 997.38,-387.75 1003.38,-387.75 1003.38,-387.75 1069.88,-387.75 1069.88,-387.75 1075.88,-387.75 1081.88,-393.75 1081.88,-399.75 1081.88,-399.75 1081.88,-412.75 1081.88,-412.75 1081.88,-418.75 1075.88,-424.75 1069.88,-424.75"/>
<text xml:space="preserve" text-anchor="start" x="1001.38" y="-409.3" font-family="Helvetica,sans-Serif" font-weight="bold" font-size="11.00" fill="white">UserMessage</text>
<text xml:space="preserve" text-anchor="start" x="1008.88" y="-395.15" font-family="Helvetica,sans-Serif" font-size="8.00" fill="#e0e8f0">devkg:Message</text>
</g>
<!-- Message&#45;&gt;UserMessage -->
<g id="edge4" class="edge">
<title>Message&#45;&gt;UserMessage</title>
<path fill="none" stroke="#888888" stroke-width="1.2" stroke-dasharray="5,2" d="M658.73,-532.18C737.35,-506.19 895.02,-454.06 979.72,-426.06"/>
<polygon fill="none" stroke="#888888" stroke-width="1.2" points="980.8,-429.39 989.2,-422.93 978.6,-422.75 980.8,-429.39"/>
<text xml:space="preserve" text-anchor="middle" x="881.82" y="-473.82" font-family="Helvetica,sans-Serif" font-size="9.00">rdfs:subClassOf</text>
</g>
<!-- AssistantMessage -->
<g id="node6" class="node">
<title>AssistantMessage</title>
<path fill="#4a90d9" stroke="#2e6db4" stroke-width="1.5" d="M582.25,-424.75C582.25,-424.75 491,-424.75 491,-424.75 485,-424.75 479,-418.75 479,-412.75 479,-412.75 479,-399.75 479,-399.75 479,-393.75 485,-387.75 491,-387.75 491,-387.75 582.25,-387.75 582.25,-387.75 588.25,-387.75 594.25,-393.75 594.25,-399.75 594.25,-399.75 594.25,-412.75 594.25,-412.75 594.25,-418.75 588.25,-424.75 582.25,-424.75"/>
<text xml:space="preserve" text-anchor="start" x="489" y="-409.3" font-family="Helvetica,sans-Serif" font-weight="bold" font-size="11.00" fill="white">AssistantMessage</text>
<text xml:space="preserve" text-anchor="start" x="508.88" y="-395.15" font-family="Helvetica,sans-Serif" font-size="8.00" fill="#e0e8f0">devkg:Message</text>
</g>
<!-- Message&#45;&gt;AssistantMessage -->
<g id="edge5" class="edge">
<title>Message&#45;&gt;AssistantMessage</title>
<path fill="none" stroke="#888888" stroke-width="1.2" stroke-dasharray="5,2" d="M592.67,-529.67C581.8,-518.38 568.65,-503.03 560.12,-487.25 551.57,-471.42 545.78,-452.1 542.09,-436.41"/>
<polygon fill="none" stroke="#888888" stroke-width="1.2" points="545.59,-436.05 540.05,-427.02 538.75,-437.53 545.59,-436.05"/>
<text xml:space="preserve" text-anchor="middle" x="592.38" y="-473.82" font-family="Helvetica,sans-Serif" font-size="9.00">rdfs:subClassOf</text>
</g>
<!-- Topic -->
<g id="node10" class="node">
<title>Topic</title>
<path fill="#4a90d9" stroke="#2e6db4" stroke-width="1.5" d="M928.62,-567.25C928.62,-567.25 884.62,-567.25 884.62,-567.25 878.62,-567.25 872.62,-561.25 872.62,-555.25 872.62,-555.25 872.62,-542.25 872.62,-542.25 872.62,-536.25 878.62,-530.25 884.62,-530.25 884.62,-530.25 928.62,-530.25 928.62,-530.25 934.62,-530.25 940.62,-536.25 940.62,-542.25 940.62,-542.25 940.62,-555.25 940.62,-555.25 940.62,-561.25 934.62,-567.25 928.62,-567.25"/>
<text xml:space="preserve" text-anchor="start" x="892.75" y="-551.8" font-family="Helvetica,sans-Serif" font-weight="bold" font-size="11.00" fill="white">Topic</text>
<text xml:space="preserve" text-anchor="start" x="882.62" y="-537.65" font-family="Helvetica,sans-Serif" font-size="8.00" fill="#e0e8f0">skos:Concept</text>
</g>
<!-- Message&#45;&gt;Topic -->
<g id="edge7" class="edge">
<title>Message&#45;&gt;Topic</title>
<path fill="none" stroke="black" stroke-width="1.2" d="M659.02,-548.75C714.44,-548.75 805.56,-548.75 860.45,-548.75"/>
<polygon fill="black" stroke="black" stroke-width="1.2" points="860.43,-552.25 870.43,-548.75 860.43,-545.25 860.43,-552.25"/>
<text xml:space="preserve" text-anchor="middle" x="765.5" y="-552.95" font-family="Helvetica,sans-Serif" font-size="9.00">mentionsTopic</text>
</g>
<!-- UserMessage&#45;&gt;Developer -->
<g id="edge8" class="edge">
<title>UserMessage&#45;&gt;Developer</title>
<path fill="none" stroke="#4a90d9" stroke-width="1.2" stroke-dasharray="5,2" d="M990.67,-419.39C981.44,-421.47 971.77,-423.39 962.62,-424.75 810.44,-447.31 412.72,-406.41 271.62,-467.75 173.29,-510.5 90.96,-613.17 55.43,-662.66"/>
<polygon fill="#4a90d9" stroke="#4a90d9" stroke-width="1.2" points="52.73,-660.43 49.81,-670.61 58.44,-664.47 52.73,-660.43"/>
<text xml:space="preserve" text-anchor="middle" x="210.41" y="-545.08" font-family="Helvetica,sans-Serif" font-size="9.00">has_creator (sioc)</text>
</g>
<!-- AssistantMessage&#45;&gt;AIModel -->
<g id="edge9" class="edge">
<title>AssistantMessage&#45;&gt;AIModel</title>
<path fill="none" stroke="#4a90d9" stroke-width="1.2" stroke-dasharray="5,2" d="M594.57,-419.39C604.25,-421.28 614.21,-423.14 623.62,-424.75 798.5,-454.68 1201.65,-420.78 1073.62,-567.25 1059.07,-583.91 386.01,-664.02 206.33,-685.14"/>
<polygon fill="#4a90d9" stroke="#4a90d9" stroke-width="1.2" points="206.07,-681.64 196.54,-686.29 206.88,-688.6 206.07,-681.64"/>
<text xml:space="preserve" text-anchor="middle" x="1132.46" y="-545.08" font-family="Helvetica,sans-Serif" font-size="9.00">has_creator (sioc)</text>
</g>
<!-- ToolCall -->
<g id="node7" class="node">
<title>ToolCall</title>
<path fill="#4a90d9" stroke="#2e6db4" stroke-width="1.5" d="M555.62,-157C555.62,-157 517.62,-157 517.62,-157 511.62,-157 505.62,-151 505.62,-145 505.62,-145 505.62,-132 505.62,-132 505.62,-126 511.62,-120 517.62,-120 517.62,-120 555.62,-120 555.62,-120 561.62,-120 567.62,-126 567.62,-132 567.62,-132 567.62,-145 567.62,-145 567.62,-151 561.62,-157 555.62,-157"/>
<text xml:space="preserve" text-anchor="start" x="515.62" y="-141.55" font-family="Helvetica,sans-Serif" font-weight="bold" font-size="11.00" fill="white">ToolCall</text>
<text xml:space="preserve" text-anchor="start" x="515.62" y="-127.4" font-family="Helvetica,sans-Serif" font-size="8.00" fill="#e0e8f0">prov:Activity</text>
</g>
<!-- AssistantMessage&#45;&gt;ToolCall -->
<g id="edge10" class="edge">
<title>AssistantMessage&#45;&gt;ToolCall</title>
<path fill="none" stroke="black" stroke-width="1.2" d="M536.62,-387.4C536.62,-342.59 536.62,-225 536.62,-169.42"/>
<polygon fill="black" stroke="black" stroke-width="1.2" points="540.13,-169.44 536.63,-159.44 533.13,-169.44 540.13,-169.44"/>
<text xml:space="preserve" text-anchor="middle" x="561.38" y="-336.2" font-family="Helvetica,sans-Serif" font-size="9.00">invokedTool</text>
</g>
<!-- ToolResult -->
<g id="node8" class="node">
<title>ToolResult</title>
<path fill="#4a90d9" stroke="#2e6db4" stroke-width="1.5" d="M747.38,-157C747.38,-157 695.88,-157 695.88,-157 689.88,-157 683.88,-151 683.88,-145 683.88,-145 683.88,-132 683.88,-132 683.88,-126 689.88,-120 695.88,-120 695.88,-120 747.38,-120 747.38,-120 753.38,-120 759.38,-126 759.38,-132 759.38,-132 759.38,-145 759.38,-145 759.38,-151 753.38,-157 747.38,-157"/>
<text xml:space="preserve" text-anchor="start" x="693.88" y="-141.55" font-family="Helvetica,sans-Serif" font-weight="bold" font-size="11.00" fill="white">ToolResult</text>
<text xml:space="preserve" text-anchor="start" x="702.88" y="-127.4" font-family="Helvetica,sans-Serif" font-size="8.00" fill="#e0e8f0">prov:Entity</text>
</g>
<!-- ToolCall&#45;&gt;ToolResult -->
<g id="edge11" class="edge">
<title>ToolCall&#45;&gt;ToolResult</title>
<path fill="none" stroke="black" stroke-width="1.2" d="M568.01,-138.5C596.38,-138.5 638.63,-138.5 671.65,-138.5"/>
<polygon fill="black" stroke="black" stroke-width="1.2" points="671.53,-142 681.53,-138.5 671.53,-135 671.53,-142"/>
<text xml:space="preserve" text-anchor="middle" x="625.75" y="-142.7" font-family="Helvetica,sans-Serif" font-size="9.00">hasToolResult</text>
</g>
<!-- ToolCall&#45;&gt;CodeArtifact -->
<g id="edge13" class="edge">
<title>ToolCall&#45;&gt;CodeArtifact</title>
<path fill="none" stroke="black" stroke-width="1.2" stroke-dasharray="5,2" d="M504.98,-138.5C476.56,-138.5 433.31,-138.5 393.57,-138.5"/>
<polygon fill="black" stroke="black" stroke-width="1.2" points="393.73,-135 383.73,-138.5 393.73,-142 393.73,-135"/>
<text xml:space="preserve" text-anchor="middle" x="443.44" y="-142.7" font-family="Helvetica,sans-Serif" font-size="9.00">producedArtifact</text>
</g>
<!-- Entity -->
<g id="node11" class="node">
<title>Entity</title>
<path fill="#5cb85c" stroke="#449d44" stroke-width="1.5" d="M921.38,-424.75C921.38,-424.75 887.88,-424.75 887.88,-424.75 881.88,-424.75 875.88,-418.75 875.88,-412.75 875.88,-412.75 875.88,-399.75 875.88,-399.75 875.88,-393.75 881.88,-387.75 887.88,-387.75 887.88,-387.75 921.38,-387.75 921.38,-387.75 927.38,-387.75 933.38,-393.75 933.38,-399.75 933.38,-399.75 933.38,-412.75 933.38,-412.75 933.38,-418.75 927.38,-424.75 921.38,-424.75"/>
<text xml:space="preserve" text-anchor="start" x="889.25" y="-409.3" font-family="Helvetica,sans-Serif" font-weight="bold" font-size="11.00" fill="white">Entity</text>
<text xml:space="preserve" text-anchor="start" x="885.88" y="-395.15" font-family="Helvetica,sans-Serif" font-size="8.00" fill="#d5f0d5">prov:Entity</text>
</g>
<!-- PredicateList -->
<g id="node13" class="node">
<title>PredicateList</title>
<path fill="lightgrey" stroke="none" stroke-width="1.5" d="M1388.12,-261C1388.12,-261 829.12,-261 829.12,-261 823.12,-261 817.12,-255 817.12,-249 817.12,-249 817.12,-28 817.12,-28 817.12,-22 823.12,-16 829.12,-16 829.12,-16 1388.12,-16 1388.12,-16 1394.12,-16 1400.12,-22 1400.12,-28 1400.12,-28 1400.12,-249 1400.12,-249 1400.12,-255 1394.12,-261 1388.12,-261"/>
<polygon fill="#5cb85c" stroke="none" points="825.12,-233 825.12,-257 1392.12,-257 1392.12,-233 825.12,-233"/>
<polygon fill="none" stroke="#449d44" points="825.12,-233 825.12,-257 1392.12,-257 1392.12,-233 825.12,-233"/>
<text xml:space="preserve" text-anchor="start" x="1042.62" y="-241.55" font-family="Helvetica,sans-Serif" font-weight="bold" font-size="11.00" fill="white">24 Knowledge Predicates</text>
<polygon fill="#e8f5e8" stroke="none" points="825.12,-209 825.12,-233 1010.38,-233 1010.38,-209 825.12,-209"/>
<polygon fill="none" stroke="#449d44" points="825.12,-209 825.12,-233 1010.38,-233 1010.38,-209 825.12,-209"/>
<text xml:space="preserve" text-anchor="start" x="861.5" y="-217.55" font-family="Helvetica,sans-Serif" font-weight="bold" font-size="11.00">Dependency &amp; Usage</text>
<polygon fill="#e8f5e8" stroke="none" points="1010.38,-209 1010.38,-233 1198.62,-233 1198.62,-209 1010.38,-209"/>
<polygon fill="none" stroke="#449d44" points="1010.38,-209 1010.38,-233 1198.62,-233 1198.62,-209 1010.38,-209"/>
<text xml:space="preserve" text-anchor="start" x="1038.88" y="-217.55" font-family="Helvetica,sans-Serif" font-weight="bold" font-size="11.00">Composition &amp; Structure</text>
<polygon fill="#e8f5e8" stroke="none" points="1198.62,-209 1198.62,-233 1392.12,-233 1392.12,-209 1198.62,-209"/>
<polygon fill="none" stroke="#449d44" points="1198.62,-209 1198.62,-233 1392.12,-233 1392.12,-209 1198.62,-209"/>
<text xml:space="preserve" text-anchor="start" x="1259.38" y="-217.55" font-family="Helvetica,sans-Serif" font-weight="bold" font-size="11.00">Infrastructure</text>
<polygon fill="none" stroke="#449d44" points="825.12,-113 825.12,-209 1010.38,-209 1010.38,-113 825.12,-113"/>
<text xml:space="preserve" text-anchor="start" x="870.5" y="-192.55" font-family="Helvetica,sans-Serif" font-size="11.00"> &#160;&#160;&#160;&#160;&#160;&#160;&#160;&#160;&#160;&#160;&#160;&#160;&#160;&#160;&#160;&#160;&#160;&#160;&#160;&#160;&#160;&#160;&#160;uses</text>
<text xml:space="preserve" text-anchor="start" x="854" y="-180.55" font-family="Helvetica,sans-Serif" font-size="11.00"> &#160;&#160;&#160;&#160;&#160;&#160;&#160;&#160;&#160;&#160;&#160;&#160;&#160;&#160;&#160;&#160;&#160;&#160;&#160;&#160;&#160;&#160;&#160;dependsOn</text>
<text xml:space="preserve" text-anchor="start" x="862.25" y="-168.55" font-family="Helvetica,sans-Serif" font-size="11.00"> &#160;&#160;&#160;&#160;&#160;&#160;&#160;&#160;&#160;&#160;&#160;&#160;&#160;&#160;&#160;&#160;&#160;&#160;&#160;&#160;&#160;&#160;&#160;requires</text>
<text xml:space="preserve" text-anchor="start" x="863" y="-156.55" font-family="Helvetica,sans-Serif" font-size="11.00"> &#160;&#160;&#160;&#160;&#160;&#160;&#160;&#160;&#160;&#160;&#160;&#160;&#160;&#160;&#160;&#160;&#160;&#160;&#160;&#160;&#160;&#160;&#160;enables</text>
<text xml:space="preserve" text-anchor="start" x="854.38" y="-144.55" font-family="Helvetica,sans-Serif" font-size="11.00"> &#160;&#160;&#160;&#160;&#160;&#160;&#160;&#160;&#160;&#160;&#160;&#160;&#160;&#160;&#160;&#160;&#160;&#160;&#160;&#160;&#160;&#160;&#160;implements</text>
<text xml:space="preserve" text-anchor="start" x="863" y="-132.55" font-family="Helvetica,sans-Serif" font-size="11.00"> &#160;&#160;&#160;&#160;&#160;&#160;&#160;&#160;&#160;&#160;&#160;&#160;&#160;&#160;&#160;&#160;&#160;&#160;&#160;&#160;&#160;&#160;&#160;extends</text>
<text xml:space="preserve" text-anchor="start" x="831.12" y="-120.55" font-family="Helvetica,sans-Serif" font-size="11.00"> &#160;&#160;&#160;&#160;&#160;&#160;&#160;&#160;&#160;&#160;&#160;&#160;&#160;&#160;&#160;&#160;&#160;&#160;&#160;&#160;&#160;&#160;&#160;builtWith &#160;&#160;&#160;&#160;&#160;&#160;&#160;&#160;&#160;&#160;&#160;&#160;&#160;&#160;&#160;&#160;&#160;&#160;&#160;</text>
<polygon fill="none" stroke="#449d44" points="1010.38,-113 1010.38,-209 1198.62,-209 1198.62,-113 1010.38,-113"/>
<text xml:space="preserve" text-anchor="start" x="1021.25" y="-193.55" font-family="Helvetica,sans-Serif" font-size="11.00"> &#160;&#160;&#160;&#160;&#160;&#160;&#160;&#160;&#160;&#160;&#160;&#160;&#160;&#160;&#160;&#160;&#160;&#160;&#160;&#160;&#160;&#160;&#160;</text>
<text xml:space="preserve" text-anchor="start" x="1093.25" y="-193.55" font-family="Helvetica,sans-Serif" font-weight="bold" font-size="11.00" fill="#c0392b">isPartOf</text>
<text xml:space="preserve" text-anchor="start" x="1136" y="-193.55" font-family="Helvetica,sans-Serif" font-size="11.00" fill="#c0392b"> &#160;(dcterms)</text>
<text xml:space="preserve" text-anchor="start" x="1022.38" y="-182.55" font-family="Helvetica,sans-Serif" font-size="11.00"> &#160;&#160;&#160;&#160;&#160;&#160;&#160;&#160;&#160;&#160;&#160;&#160;&#160;&#160;&#160;&#160;&#160;&#160;&#160;&#160;&#160;&#160;&#160;</text>
<text xml:space="preserve" text-anchor="start" x="1094.38" y="-182.55" font-family="Helvetica,sans-Serif" font-weight="bold" font-size="11.00" fill="#c0392b">hasPart</text>
<text xml:space="preserve" text-anchor="start" x="1134.88" y="-182.55" font-family="Helvetica,sans-Serif" font-size="11.00" fill="#c0392b"> &#160;(dcterms)</text>
<text xml:space="preserve" text-anchor="start" x="1033.25" y="-171.55" font-family="Helvetica,sans-Serif" font-size="11.00"> &#160;&#160;&#160;&#160;&#160;&#160;&#160;&#160;&#160;&#160;&#160;&#160;&#160;&#160;&#160;&#160;&#160;&#160;&#160;&#160;&#160;&#160;&#160;composesWith</text>
<text xml:space="preserve" text-anchor="start" x="1047.12" y="-160.55" font-family="Helvetica,sans-Serif" font-size="11.00"> &#160;&#160;&#160;&#160;&#160;&#160;&#160;&#160;&#160;&#160;&#160;&#160;&#160;&#160;&#160;&#160;&#160;&#160;&#160;&#160;&#160;&#160;&#160;isTypeOf</text>
<text xml:space="preserve" text-anchor="start" x="1038.12" y="-149.55" font-family="Helvetica,sans-Serif" font-size="11.00"> &#160;&#160;&#160;&#160;&#160;&#160;&#160;&#160;&#160;&#160;&#160;&#160;&#160;&#160;&#160;&#160;&#160;&#160;&#160;&#160;&#160;&#160;&#160;alternativeTo</text>
<text xml:space="preserve" text-anchor="start" x="1016.38" y="-138.55" font-family="Helvetica,sans-Serif" font-size="11.00"> &#160;&#160;&#160;&#160;&#160;&#160;&#160;&#160;&#160;&#160;&#160;&#160;&#160;&#160;&#160;&#160;&#160;&#160;&#160;&#160;&#160;&#160;&#160;servesAs &#160;&#160;&#160;&#160;&#160;&#160;&#160;&#160;&#160;&#160;&#160;&#160;&#160;&#160;&#160;&#160;&#160;&#160;&#160;</text>
<polygon fill="none" stroke="#449d44" points="1198.62,-113 1198.62,-209 1392.12,-209 1392.12,-113 1198.62,-113"/>
<text xml:space="preserve" text-anchor="start" x="1230.5" y="-192.55" font-family="Helvetica,sans-Serif" font-size="11.00"> &#160;&#160;&#160;&#160;&#160;&#160;&#160;&#160;&#160;&#160;&#160;&#160;&#160;&#160;&#160;&#160;&#160;&#160;&#160;&#160;&#160;&#160;&#160;deployedOn</text>
<text xml:space="preserve" text-anchor="start" x="1240.25" y="-180.55" font-family="Helvetica,sans-Serif" font-size="11.00"> &#160;&#160;&#160;&#160;&#160;&#160;&#160;&#160;&#160;&#160;&#160;&#160;&#160;&#160;&#160;&#160;&#160;&#160;&#160;&#160;&#160;&#160;&#160;storesIn</text>
<text xml:space="preserve" text-anchor="start" x="1230.5" y="-168.55" font-family="Helvetica,sans-Serif" font-size="11.00"> &#160;&#160;&#160;&#160;&#160;&#160;&#160;&#160;&#160;&#160;&#160;&#160;&#160;&#160;&#160;&#160;&#160;&#160;&#160;&#160;&#160;&#160;&#160;queriedWith</text>
<text xml:space="preserve" text-anchor="start" x="1224.88" y="-156.55" font-family="Helvetica,sans-Serif" font-size="11.00"> &#160;&#160;&#160;&#160;&#160;&#160;&#160;&#160;&#160;&#160;&#160;&#160;&#160;&#160;&#160;&#160;&#160;&#160;&#160;&#160;&#160;&#160;&#160;integratesWith</text>
<text xml:space="preserve" text-anchor="start" x="1204.62" y="-144.55" font-family="Helvetica,sans-Serif" font-size="11.00"> &#160;&#160;&#160;&#160;&#160;&#160;&#160;&#160;&#160;&#160;&#160;&#160;&#160;&#160;&#160;&#160;&#160;&#160;&#160;&#160;&#160;&#160;&#160;configures &#160;&#160;&#160;&#160;&#160;&#160;&#160;&#160;&#160;&#160;&#160;&#160;&#160;&#160;&#160;&#160;&#160;&#160;&#160;</text>
<polygon fill="#e8f5e8" stroke="none" points="825.12,-89 825.12,-113 1010.38,-113 1010.38,-89 825.12,-89"/>
<polygon fill="none" stroke="#449d44" points="825.12,-89 825.12,-113 1010.38,-113 1010.38,-89 825.12,-89"/>
<text xml:space="preserve" text-anchor="start" x="891.5" y="-97.55" font-family="Helvetica,sans-Serif" font-weight="bold" font-size="11.00">Capability</text>
<polygon fill="#e8f5e8" stroke="none" points="1010.38,-89 1010.38,-113 1392.12,-113 1392.12,-89 1010.38,-89"/>
<polygon fill="none" stroke="#449d44" points="1010.38,-89 1010.38,-113 1392.12,-113 1392.12,-89 1010.38,-89"/>
<text xml:space="preserve" text-anchor="start" x="1128.88" y="-97.55" font-family="Helvetica,sans-Serif" font-weight="bold" font-size="11.00">Taxonomy &#160;(SKOS&#45;mapped)</text>
<polygon fill="none" stroke="#449d44" points="825.12,-41 825.12,-89 1010.38,-89 1010.38,-41 825.12,-41"/>
<text xml:space="preserve" text-anchor="start" x="866.38" y="-72.55" font-family="Helvetica,sans-Serif" font-size="11.00"> &#160;&#160;&#160;&#160;&#160;&#160;&#160;&#160;&#160;&#160;&#160;&#160;&#160;&#160;&#160;&#160;&#160;&#160;&#160;&#160;&#160;&#160;&#160;solves</text>
<text xml:space="preserve" text-anchor="start" x="859.25" y="-60.55" font-family="Helvetica,sans-Serif" font-size="11.00"> &#160;&#160;&#160;&#160;&#160;&#160;&#160;&#160;&#160;&#160;&#160;&#160;&#160;&#160;&#160;&#160;&#160;&#160;&#160;&#160;&#160;&#160;&#160;produces</text>
<text xml:space="preserve" text-anchor="start" x="831.12" y="-48.55" font-family="Helvetica,sans-Serif" font-size="11.00"> &#160;&#160;&#160;&#160;&#160;&#160;&#160;&#160;&#160;&#160;&#160;&#160;&#160;&#160;&#160;&#160;&#160;&#160;&#160;&#160;&#160;&#160;&#160;provides &#160;&#160;&#160;&#160;&#160;&#160;&#160;&#160;&#160;&#160;&#160;&#160;&#160;&#160;&#160;&#160;&#160;&#160;&#160;</text>
<polygon fill="none" stroke="#449d44" points="1010.38,-41 1010.38,-89 1392.12,-89 1392.12,-41 1010.38,-41"/>
<text xml:space="preserve" text-anchor="start" x="1047.5" y="-73.55" font-family="Helvetica,sans-Serif" font-size="11.00"> &#160;&#160;&#160;&#160;&#160;&#160;&#160;&#160;&#160;&#160;&#160;&#160;&#160;&#160;&#160;&#160;&#160;&#160;&#160;&#160;&#160;&#160;&#160;</text>
<text xml:space="preserve" text-anchor="start" x="1119.5" y="-73.55" font-family="Helvetica,sans-Serif" font-weight="bold" font-size="11.00" fill="#c0392b">broader</text>
<text xml:space="preserve" text-anchor="start" x="1160.75" y="-73.55" font-family="Helvetica,sans-Serif" font-size="11.00" fill="#c0392b"> &#160;(skos:broader)</text>
<text xml:space="preserve" text-anchor="start" x="1041.5" y="-62.55" font-family="Helvetica,sans-Serif" font-size="11.00"> &#160;&#160;&#160;&#160;&#160;&#160;&#160;&#160;&#160;&#160;&#160;&#160;&#160;&#160;&#160;&#160;&#160;&#160;&#160;&#160;&#160;&#160;&#160;</text>
<text xml:space="preserve" text-anchor="start" x="1113.5" y="-62.55" font-family="Helvetica,sans-Serif" font-weight="bold" font-size="11.00" fill="#c0392b">narrower</text>
<text xml:space="preserve" text-anchor="start" x="1160.75" y="-62.55" font-family="Helvetica,sans-Serif" font-size="11.00" fill="#c0392b"> &#160;(skos:narrower)</text>
<text xml:space="preserve" text-anchor="start" x="1016.38" y="-51.55" font-family="Helvetica,sans-Serif" font-size="11.00"> &#160;&#160;&#160;&#160;&#160;&#160;&#160;&#160;&#160;&#160;&#160;&#160;&#160;&#160;&#160;&#160;&#160;&#160;&#160;&#160;&#160;&#160;&#160;</text>
<text xml:space="preserve" text-anchor="start" x="1088.38" y="-51.55" font-family="Helvetica,sans-Serif" font-weight="bold" font-size="11.00" fill="#c0392b">relatedTo</text>
<text xml:space="preserve" text-anchor="start" x="1136.38" y="-51.55" font-family="Helvetica,sans-Serif" font-size="11.00" fill="#c0392b"> &#160;(skos:related)</text>
<text xml:space="preserve" text-anchor="start" x="1207.62" y="-51.55" font-family="Helvetica,sans-Serif" font-size="11.00"> &#160;&#160;&#160;&#160;&#160;&#160;&#160;&#160;&#160;&#160;&#160;&#160;&#160;&#160;&#160;&#160;&#160;&#160;&#160;</text>
<polygon fill="#fff3cd" stroke="none" points="825.12,-20 825.12,-41 1392.12,-41 1392.12,-20 825.12,-20"/>
<polygon fill="none" stroke="#449d44" points="825.12,-20 825.12,-41 1392.12,-41 1392.12,-20 825.12,-20"/>
<text xml:space="preserve" text-anchor="start" x="1015.25" y="-28.4" font-family="Helvetica,sans-Serif" font-weight="bold" font-size="8.00" fill="#856404">Red bold</text>
<text xml:space="preserve" text-anchor="start" x="1051.25" y="-28.4" font-family="Helvetica,sans-Serif" font-size="8.00" fill="#856404"> = maps to W3C standard (dcterms / skos)</text>
</g>
<!-- Entity&#45;&gt;PredicateList -->
<g id="edge18" class="edge">
<title>Entity&#45;&gt;PredicateList</title>
<path fill="none" stroke="#449d44" stroke-width="1.2" stroke-dasharray="5,2" d="M918.33,-387.4C938.47,-361.16 977.79,-309.94 1015.48,-260.85"/>
<text xml:space="preserve" text-anchor="middle" x="986.55" y="-336.2" font-family="Helvetica,sans-Serif" font-size="9.00" fill="#449d44">domain &amp; range</text>
</g>
<!-- KnowledgeTriple -->
<g id="node12" class="node">
<title>KnowledgeTriple</title>
<path fill="#5cb85c" stroke="#449d44" stroke-width="1.5" d="M748.5,-424.75C748.5,-424.75 664.75,-424.75 664.75,-424.75 658.75,-424.75 652.75,-418.75 652.75,-412.75 652.75,-412.75 652.75,-399.75 652.75,-399.75 652.75,-393.75 658.75,-387.75 664.75,-387.75 664.75,-387.75 748.5,-387.75 748.5,-387.75 754.5,-387.75 760.5,-393.75 760.5,-399.75 760.5,-399.75 760.5,-412.75 760.5,-412.75 760.5,-418.75 754.5,-424.75 748.5,-424.75"/>
<text xml:space="preserve" text-anchor="start" x="662.75" y="-409.3" font-family="Helvetica,sans-Serif" font-weight="bold" font-size="11.00" fill="white">KnowledgeTriple</text>
<text xml:space="preserve" text-anchor="start" x="675.88" y="-395.15" font-family="Helvetica,sans-Serif" font-size="8.00" fill="#d5f0d5">reified triple node</text>
</g>
<!-- KnowledgeTriple&#45;&gt;Session -->
<g id="edge17" class="edge">
<title>KnowledgeTriple&#45;&gt;Session</title>
<path fill="none" stroke="#449d44" stroke-width="1.2" d="M761.16,-411.5C808.92,-417.56 878.2,-432.23 927.62,-467.75 966.6,-495.76 999.74,-529.87 969.62,-567.25 907.42,-644.46 604.8,-675.75 469.83,-686.02"/>
<polygon fill="#449d44" stroke="#449d44" stroke-width="1.2" points="469.6,-682.52 459.89,-686.75 470.12,-689.5 469.6,-682.52"/>
<text xml:space="preserve" text-anchor="middle" x="1020.31" y="-545.08" font-family="Helvetica,sans-Serif" font-size="9.00" fill="#449d44">extractedInSession</text>
</g>
<!-- KnowledgeTriple&#45;&gt;Message -->
<g id="edge16" class="edge">
<title>KnowledgeTriple&#45;&gt;Message</title>
<path fill="none" stroke="#449d44" stroke-width="1.2" d="M694.45,-425.26C678.23,-449.25 649.37,-491.93 630.36,-520.04"/>
<polygon fill="#449d44" stroke="#449d44" stroke-width="1.2" points="627.57,-517.92 624.87,-528.17 633.37,-521.84 627.57,-517.92"/>
<text xml:space="preserve" text-anchor="middle" x="694.06" y="-473.82" font-family="Helvetica,sans-Serif" font-size="9.00" fill="#449d44">extractedFrom</text>
</g>
<!-- KnowledgeTriple&#45;&gt;Entity -->
<g id="edge14" class="edge">
<title>KnowledgeTriple&#45;&gt;Entity</title>
<path fill="none" stroke="#449d44" stroke-width="1.2" d="M760.99,-406.25C793.39,-406.25 833.86,-406.25 863.57,-406.25"/>
<polygon fill="#449d44" stroke="#449d44" stroke-width="1.2" points="863.38,-409.75 873.38,-406.25 863.38,-402.75 863.38,-409.75"/>
<text xml:space="preserve" text-anchor="middle" x="818.19" y="-410.45" font-family="Helvetica,sans-Serif" font-size="9.00" fill="#449d44">tripleSubject</text>
</g>
<!-- KnowledgeTriple&#45;&gt;Entity -->
<g id="edge15" class="edge">
<title>KnowledgeTriple&#45;&gt;Entity</title>
<path fill="none" stroke="#449d44" stroke-width="1.2" stroke-dasharray="5,2" d="M761.08,-396.29C785.64,-393.03 815,-390.86 841.44,-393.5 848.75,-394.23 856.46,-395.42 863.89,-396.79"/>
<polygon fill="#449d44" stroke="#449d44" stroke-width="1.2" points="862.96,-400.18 873.45,-398.7 864.33,-393.31 862.96,-400.18"/>
<text xml:space="preserve" text-anchor="middle" x="818.19" y="-394.7" font-family="Helvetica,sans-Serif" font-size="9.00" fill="#449d44">tripleObject</text>
</g>
</g>
</svg>
